<svg width="24" height="24" viewBox="0 0 24 24" fill="none" xmlns="http://www.w3.org/2000/svg">
<path d="M8 10C8.55228 10 9 9.55228 9 9C9 8.44772 8.55228 8 8 8C7.44772 8 7 8.44772 7 9C7 9.55228 7.44772 10 8 10Z" fill="#282C33"/>
<path d="M12 9C12 9.55228 11.5523 10 11 10C10.4477 10 10 9.55228 10 9C10 8.44772 10.4477 8 11 8C11.5523 8 12 8.44772 12 9Z" fill="#282C33"/>
<path d="M15 9C15 9.55228 14.5523 10 14 10C13.4477 10 13 9.55228 13 9C13 8.44772 13.4477 8 14 8C14.5523 8 15 8.44772 15 9Z" fill="#282C33"/>
<path fill-rule="evenodd" clip-rule="evenodd" d="M2 9C2 5.68629 4.68629 3 8 3H14C17.3137 3 20 5.68629 20 9C20 12.3137 17.3137 15 14 15H9.62748C9.51545 15 9.40666 15.0376 9.31857 15.1068L5.80891 17.8644C5.48085 18.1222 5 17.8885 5 17.4713V14.4857C5 14.3072 4.90391 14.1436 4.75389 14.0469C3.09708 12.9791 2 11.1177 2 9ZM8 4C5.23858 4 3 6.23858 3 9C3 10.7637 3.91239 12.3149 5.29563 13.2064C5.70865 13.4726 6 13.9413 6 14.4857V16.4425L8.70074 14.3205C8.96502 14.1129 9.29138 14 9.62748 14H14C16.7614 14 19 11.7614 19 9C19 6.23858 16.7614 4 14 4H8Z" fill="#282C33"/>
<path d="M21.4962 11.1976C21.3805 10.9469 21.0835 10.8374 20.8327 10.9532C20.582 11.0689 20.4725 11.3659 20.5883 11.6167C20.8524 12.189 21 12.8266 21 13.5C21 14.9719 20.2938 16.2788 19.1997 17.1006C19.074 17.195 19 17.3431 19 17.5004V19.9325L16.8201 18.1159C16.7302 18.041 16.617 18 16.5 18H12.5C11.3357 18 10.2757 17.5585 9.47647 16.833C9.272 16.6474 8.95579 16.6627 8.77018 16.8671C8.58458 17.0716 8.59987 17.3878 8.80433 17.5734C9.78041 18.4595 11.0777 19 12.5 19H16.319L19.1799 21.3841C19.3289 21.5083 19.5364 21.5351 19.7121 21.4528C19.8878 21.3705 20 21.194 20 21V17.7428C21.2207 16.7347 22 15.2083 22 13.5C22 12.679 21.8198 11.8987 21.4962 11.1976Z" fill="#282C33"/>
</svg>
