<svg width="72" height="72" viewBox="0 0 72 72" fill="none" xmlns="http://www.w3.org/2000/svg">
<path fill-rule="evenodd" clip-rule="evenodd" d="M43.4694 61.4462C57.6412 61.4462 59.1507 49.9577 59.1507 35.7859C59.1507 21.614 54.79 8.69995 40.6182 8.69995C26.4464 8.69995 7.25977 27.1125 7.25977 45.7649C7.25977 59.9367 29.2975 61.4462 43.4694 61.4462ZM34.9159 50.0416C41.2145 50.0416 49.1717 44.9356 49.1717 35.7859C49.1717 26.6361 41.2145 21.5301 34.9159 21.5301C28.6173 21.5301 20.6602 26.6361 20.6602 35.7859C20.6602 44.9356 28.6173 50.0416 34.9159 50.0416Z" fill="url(#paint0_linear_598_7696)"/>
<path fill-rule="evenodd" clip-rule="evenodd" d="M28.9049 63.4115C43.0767 63.4115 63.1187 46.6201 64.5443 32.3644C65.4861 22.9457 51.9392 12.9766 37.7674 12.9766C23.5956 12.9766 8.11548 15.0259 8.11548 29.1977C8.11548 43.3696 14.7331 63.4115 28.9049 63.4115ZM34.9161 50.0415C41.2147 50.0415 49.1719 44.9355 49.1719 35.7858C49.1719 26.636 41.2147 21.53 34.9161 21.53C28.6176 21.53 20.6604 26.636 20.6604 35.7858C20.6604 44.9355 28.6176 50.0415 34.9161 50.0415Z" fill="url(#paint1_linear_598_7696)"/>
<path fill-rule="evenodd" clip-rule="evenodd" d="M12.1099 45.7706C15.3844 53.411 37.17 59.3073 50.5996 54.3167C59.4724 51.0195 63.9604 47.0861 57.7265 34.3591C51.4926 21.632 37.6651 8.16782 24.938 14.4017C12.211 20.6356 7.83323 35.7916 12.1099 45.7706ZM34.9174 48.54C41.2159 48.54 47.6701 43.44 47.6701 35.7856C47.6701 28.14 41.2159 23.04 34.9174 23.04C28.6188 23.04 22.1701 28.14 22.1701 35.7856C22.1701 43.44 28.6188 48.54 34.9174 48.54Z" fill="url(#paint2_linear_598_7696)"/>
<defs>
<linearGradient id="paint0_linear_598_7696" x1="69" y1="53.9988" x2="12.2906" y2="14.1766" gradientUnits="userSpaceOnUse">
<stop offset="0.0059794" stop-color="#CDCCFF"/>
<stop offset="1" stop-color="#7C78FF"/>
</linearGradient>
<linearGradient id="paint1_linear_598_7696" x1="42.0001" y1="62.998" x2="15.7736" y2="26.0132" gradientUnits="userSpaceOnUse">
<stop stop-color="#9391FF"/>
<stop offset="0.96338" stop-color="#6DB1FF"/>
</linearGradient>
<linearGradient id="paint2_linear_598_7696" x1="13.5001" y1="7.5" x2="48.1361" y2="72.4265" gradientUnits="userSpaceOnUse">
<stop stop-color="#DEDEFF"/>
<stop offset="1" stop-color="#6DB1FF"/>
</linearGradient>
</defs>
</svg>
