<svg width="24" height="24" viewBox="0 0 24 24" fill="none" xmlns="http://www.w3.org/2000/svg">
<path d="M12 8C10.9836 8 10.2109 8.61811 9.9878 9.60976C9.92719 9.87916 9.65965 10.0484 9.39024 9.9878C9.12084 9.92719 8.95158 9.65965 9.0122 9.39024C9.33798 7.9423 10.5159 7 12 7C12.6792 7 13.4148 7.13382 13.9962 7.52148C14.6064 7.92833 15 8.58575 15 9.5C15 10.0244 14.7837 10.4722 14.5167 10.8474C14.2558 11.214 13.9152 11.5529 13.6115 11.855L13.6027 11.8638C13.2827 12.1822 13.0023 12.4623 12.7967 12.7484C12.5945 13.0298 12.5 13.2703 12.5 13.5V14C12.5 14.2761 12.2761 14.5 12 14.5C11.7239 14.5 11.5 14.2761 11.5 14V13.5C11.5 12.9797 11.718 12.5358 11.9846 12.1649C12.2414 11.8074 12.5758 11.4748 12.8754 11.1768L12.8973 11.155C13.2164 10.8374 13.4968 10.5559 13.702 10.2675C13.9038 9.98407 14 9.73814 14 9.5C14 8.91425 13.7687 8.57167 13.4415 8.35352C13.0855 8.11618 12.5711 8 12 8Z" fill="#282C33"/>
<path d="M12.75 17C12.75 17.4142 12.4142 17.75 12 17.75C11.5858 17.75 11.25 17.4142 11.25 17C11.25 16.5858 11.5858 16.25 12 16.25C12.4142 16.25 12.75 16.5858 12.75 17Z" fill="#282C33"/>
<path fill-rule="evenodd" clip-rule="evenodd" d="M21 12C21 16.9706 16.9706 21 12 21C7.02944 21 3 16.9706 3 12C3 7.02944 7.02944 3 12 3C16.9706 3 21 7.02944 21 12ZM20 12C20 16.4183 16.4183 20 12 20C7.58172 20 4 16.4183 4 12C4 7.58172 7.58172 4 12 4C16.4183 4 20 7.58172 20 12Z" fill="#282C33"/>
</svg>
