<svg width="16" height="16" viewBox="0 0 16 16" fill="none" xmlns="http://www.w3.org/2000/svg">
<path fill-rule="evenodd" clip-rule="evenodd" d="M3.41445 11.7627L4.20699 12.5539L4.10179 12.6169L4.61931 12.4974L11.5793 5.53735L10.4626 4.42062L3.50259 11.3807L3.41445 11.7627ZM12.7686 4.34809L12.2852 4.83147L11.1685 3.71474L11.6518 3.23136C11.9602 2.92298 12.4602 2.92298 12.7686 3.23136C13.0769 3.53974 13.0769 4.03971 12.7686 4.34809ZM5.12362 13.4073L13.4757 5.0552C14.1746 4.3563 14.1746 3.22315 13.4757 2.52425C12.7768 1.82535 11.6436 1.82535 10.9447 2.52425L2.5927 10.8764L2.01331 13.3871C1.93022 13.7472 2.25289 14.0698 2.61293 13.9867L5.12362 13.4073Z" fill="#282C33"/>
</svg>
