<svg width="16" height="16" viewBox="0 0 16 16" fill="none" xmlns="http://www.w3.org/2000/svg">
<path fill-rule="evenodd" clip-rule="evenodd" d="M8 14C11.3137 14 14 11.3137 14 8C14 4.68629 11.3137 2 8 2C4.68629 2 2 4.68629 2 8C2 11.3137 4.68629 14 8 14ZM8 15C11.866 15 15 11.866 15 8C15 4.13401 11.866 1 8 1C4.13401 1 1 4.13401 1 8C1 11.866 4.13401 15 8 15Z" fill="#3c41c2"/>
<path d="M4 8C4 7.72386 4.22386 7.5 4.5 7.5H11.5C11.7761 7.5 12 7.72386 12 8C12 8.27614 11.7761 8.5 11.5 8.5H4.5C4.22386 8.5 4 8.27614 4 8Z" fill="#3c41c2"/>
<path d="M8 4C8.27614 4 8.5 4.22386 8.5 4.5L8.5 11.5C8.5 11.7761 8.27614 12 8 12C7.72386 12 7.5 11.7761 7.5 11.5L7.5 4.5C7.5 4.22386 7.72386 4 8 4Z" fill="#3c41c2"/>
</svg>
