<svg width="64" height="52" viewBox="0 0 64 52" fill="none" xmlns="http://www.w3.org/2000/svg">
<path d="M14.8045 30.096C14.2925 30.064 13.8605 29.968 13.5085 29.808C13.1565 29.648 12.8685 29.448 12.6445 29.208C12.4285 28.96 12.2605 28.68 12.1405 28.368C12.0285 28.056 11.9565 27.728 11.9245 27.384H12.9325C12.9645 27.616 13.0085 27.84 13.0645 28.056C13.1285 28.272 13.2285 28.464 13.3645 28.632C13.5005 28.8 13.6805 28.944 13.9045 29.064C14.1365 29.176 14.4365 29.248 14.8045 29.28V25.944C14.4045 25.872 14.0485 25.78 13.7365 25.668C13.4245 25.548 13.1605 25.4 12.9445 25.224C12.7285 25.04 12.5605 24.82 12.4405 24.564C12.3285 24.308 12.2725 24 12.2725 23.64C12.2725 23.328 12.3325 23.036 12.4525 22.764C12.5805 22.492 12.7525 22.256 12.9685 22.056C13.1925 21.848 13.4605 21.68 13.7725 21.552C14.0845 21.424 14.4285 21.348 14.8045 21.324V20.244H15.5125V21.336C16.2405 21.4 16.8165 21.632 17.2405 22.032C17.6725 22.424 17.9285 22.972 18.0085 23.676H17.0725C16.9845 23.212 16.8125 22.86 16.5565 22.62C16.3085 22.372 15.9605 22.216 15.5125 22.152V25.152C15.9525 25.232 16.3405 25.332 16.6765 25.452C17.0125 25.564 17.2925 25.716 17.5165 25.908C17.7405 26.092 17.9085 26.32 18.0205 26.592C18.1325 26.864 18.1885 27.192 18.1885 27.576C18.1885 27.92 18.1205 28.24 17.9845 28.536C17.8565 28.832 17.6725 29.092 17.4325 29.316C17.2005 29.54 16.9205 29.72 16.5925 29.856C16.2645 29.992 15.9045 30.072 15.5125 30.096V31.62H14.8045V30.096ZM17.1925 27.648C17.1925 27.424 17.1645 27.232 17.1085 27.072C17.0605 26.904 16.9725 26.756 16.8445 26.628C16.7165 26.5 16.5445 26.392 16.3285 26.304C16.1125 26.216 15.8405 26.136 15.5125 26.064V29.28C15.7525 29.256 15.9725 29.2 16.1725 29.112C16.3805 29.024 16.5605 28.908 16.7125 28.764C16.8645 28.62 16.9805 28.456 17.0605 28.272C17.1485 28.08 17.1925 27.872 17.1925 27.648ZM13.2205 23.544C13.2205 23.736 13.2405 23.908 13.2805 24.06C13.3205 24.212 13.3965 24.348 13.5085 24.468C13.6285 24.588 13.7885 24.696 13.9885 24.792C14.1965 24.88 14.4685 24.96 14.8045 25.032V22.14C14.3005 22.18 13.9085 22.332 13.6285 22.596C13.3565 22.852 13.2205 23.168 13.2205 23.544ZM23.0926 31.776C22.6446 31.776 22.2526 31.728 21.9166 31.632C21.5886 31.544 21.3206 31.4 21.1126 31.2C20.9126 31.008 20.7766 30.752 20.7046 30.432C20.6326 30.12 20.6366 29.736 20.7166 29.28L20.9446 28.032C20.9766 27.856 20.9766 27.684 20.9446 27.516C20.9206 27.34 20.8526 27.184 20.7406 27.048C20.6366 26.912 20.4846 26.804 20.2846 26.724C20.0846 26.636 19.8326 26.592 19.5286 26.592V25.848C19.8326 25.848 20.0846 25.808 20.2846 25.728C20.4846 25.64 20.6366 25.528 20.7406 25.392C20.8526 25.256 20.9206 25.104 20.9446 24.936C20.9766 24.76 20.9766 24.584 20.9446 24.408L20.7166 23.16C20.6366 22.704 20.6326 22.32 20.7046 22.008C20.7766 21.688 20.9126 21.432 21.1126 21.24C21.3206 21.04 21.5886 20.896 21.9166 20.808C22.2526 20.712 22.6446 20.664 23.0926 20.664V21.42C22.7966 21.42 22.5446 21.448 22.3366 21.504C22.1366 21.56 21.9766 21.656 21.8566 21.792C21.7366 21.928 21.6606 22.108 21.6286 22.332C21.5966 22.556 21.6086 22.84 21.6646 23.184L21.8926 24.564C21.9646 25.02 21.8886 25.384 21.6646 25.656C21.4406 25.928 21.1246 26.116 20.7166 26.22C21.1246 26.324 21.4406 26.512 21.6646 26.784C21.8886 27.056 21.9646 27.42 21.8926 27.876L21.6646 29.256C21.6086 29.6 21.5966 29.884 21.6286 30.108C21.6606 30.332 21.7366 30.512 21.8566 30.648C21.9766 30.784 22.1366 30.88 22.3366 30.936C22.5446 30.992 22.7966 31.02 23.0926 31.02V31.776Z" fill="#282C33"/>
<path d="M45.7445 31.02C46.0405 31.02 46.2885 30.992 46.4885 30.936C46.6965 30.88 46.8605 30.784 46.9805 30.648C47.1005 30.512 47.1765 30.332 47.2085 30.108C47.2405 29.884 47.2285 29.6 47.1725 29.256L46.9445 27.876C46.8725 27.42 46.9485 27.056 47.1725 26.784C47.3965 26.512 47.7125 26.324 48.1205 26.22C47.7125 26.116 47.3965 25.928 47.1725 25.656C46.9485 25.384 46.8725 25.02 46.9445 24.564L47.1725 23.184C47.2285 22.84 47.2405 22.556 47.2085 22.332C47.1765 22.108 47.1005 21.928 46.9805 21.792C46.8605 21.656 46.6965 21.56 46.4885 21.504C46.2885 21.448 46.0405 21.42 45.7445 21.42V20.664C46.1845 20.664 46.5725 20.712 46.9085 20.808C47.2445 20.896 47.5125 21.04 47.7125 21.24C47.9205 21.432 48.0605 21.688 48.1325 22.008C48.2045 22.32 48.2005 22.704 48.1205 23.16L47.8925 24.408C47.8605 24.584 47.8565 24.76 47.8805 24.936C47.9125 25.104 47.9805 25.256 48.0845 25.392C48.1965 25.528 48.3525 25.64 48.5525 25.728C48.7525 25.808 49.0045 25.848 49.3085 25.848V26.592C49.0045 26.592 48.7525 26.636 48.5525 26.724C48.3525 26.804 48.1965 26.912 48.0845 27.048C47.9805 27.184 47.9125 27.34 47.8805 27.516C47.8565 27.684 47.8605 27.856 47.8925 28.032L48.1205 29.28C48.2005 29.736 48.2045 30.12 48.1325 30.432C48.0605 30.752 47.9205 31.008 47.7125 31.2C47.5125 31.4 47.2445 31.544 46.9085 31.632C46.5725 31.728 46.1845 31.776 45.7445 31.776V31.02Z" fill="#282C33"/>
<rect x="1.5" y="1" width="61" height="50" rx="3" stroke="#282C33" stroke-width="2"/>
</svg>
