<svg width="24" height="24" viewBox="0 0 24 24" fill="none" xmlns="http://www.w3.org/2000/svg">
<path fill-rule="evenodd" clip-rule="evenodd" d="M13.7516 7.81548L12 3.60401L10.2483 7.81548C9.96028 8.50795 9.30906 8.98109 8.56148 9.04102L4.01484 9.40552L7.4789 12.3729C8.04848 12.8608 8.29722 13.6263 8.12321 14.3558L7.06488 18.7926L10.9574 16.415C11.5975 16.0241 12.4024 16.0241 13.0425 16.415L16.935 18.7926L15.8767 14.3558C15.7027 13.6263 15.9514 12.8608 16.521 12.3729L19.9851 9.40552L15.4384 9.04102C14.6908 8.98109 14.0396 8.50795 13.7516 7.81548ZM12.9233 3.21997C12.5817 2.39868 11.4182 2.39868 11.0766 3.21997L9.32498 7.43145C9.18097 7.77768 8.85536 8.01425 8.48157 8.04422L3.93493 8.40872C3.04827 8.4798 2.68875 9.58631 3.36429 10.165L6.82835 13.1323C7.11314 13.3763 7.23751 13.7591 7.1505 14.1238L6.09217 18.5606C5.88579 19.4258 6.82704 20.1096 7.58614 19.646L11.4787 17.2684C11.7987 17.073 12.2012 17.073 12.5212 17.2684L16.4138 19.646C17.1729 20.1096 18.1141 19.4258 17.9077 18.5606L16.8494 14.1238C16.7624 13.759 16.8868 13.3763 17.1716 13.1323L20.6356 10.165C21.3112 9.58631 20.9516 8.4798 20.065 8.40872L15.5183 8.04422C15.1445 8.01425 14.8189 7.77768 14.6749 7.43145L12.9233 3.21997Z" fill="#282C33"/>
</svg>
