<svg class="primary" viewBox="0 0 24 24" width="24" height="24" fill="#3d4752" xmlns="http://www.w3.org/2000/svg"><path d="M11.077 3.22c.341-.821 1.505-.821 1.846 0l1.752 4.211a1 1 0 00.843.613l4.547.365c.887.07 1.246 1.177.57 1.756l-3.463 2.967a1 1 0 00-.323.992l1.059 4.437c.206.865-.735 1.549-1.494 1.085l-3.893-2.378a1 1 0 00-1.042 0l-3.893 2.378c-.759.464-1.7-.22-1.494-1.085l1.059-4.437a1 1 0 00-.323-.992l-3.464-2.967c-.675-.579-.316-1.685.571-1.756l4.547-.365a1 1 0 00.843-.613l1.752-4.211z" /></svg>
