<svg width="16" height="16" viewBox="0 0 16 16" fill="none" xmlns="http://www.w3.org/2000/svg">
<path fill-rule="evenodd" clip-rule="evenodd" d="M6.49514 1.99999L9.50707 2C9.72184 2 10.0174 2.10684 10.0174 2.32162V3L5.99514 2.99999V2.32161C5.99514 2.10683 6.28036 1.99999 6.49514 1.99999ZM4.99514 2.99999V2.32161C4.99514 1.67727 5.41668 1 6.06101 1L9.89106 1.00001C10.5354 1.00001 11.0136 1.67728 11.0136 2.32162V3L12.1294 2.99999H12.8943H13.611C13.8258 2.99999 14 3.28522 14 3.5C14 3.71478 13.8258 4 13.611 4H12.9951V13.8333C12.9951 14.6924 12.3591 15 11.5 15H4.5C3.64089 15 2.99514 14.7373 2.99514 13.8782L3 4H2.39435C2.17957 4 2 3.71478 2 3.5C2 3.28522 2.17957 2.99999 2.39435 2.99999H3.49514H4.49514H4.99514ZM10.4466 4H9.66884H6.55773H5.77995H4V13C4 14 4 14 5 14H11C12 14 12 14 12 13V4H10.4466ZM6.5049 5.62334C6.71968 5.62334 6.99514 5.78522 6.99514 6V11.9337C6.99514 12.1485 6.70992 12.3226 6.49514 12.3226C6.28036 12.3226 5.99514 12.1485 5.99514 11.9337V6C5.99514 5.78522 6.29013 5.62334 6.5049 5.62334ZM10.0017 6C10.0017 5.78522 9.73118 5.62334 9.5164 5.62334C9.30162 5.62334 9.00546 5.78522 9.00546 6V11.9337C9.00546 12.1485 9.29818 12.3226 9.51295 12.3226C9.72773 12.3226 10.0017 12.1485 10.0017 11.9337V6Z" fill="#282C33"/>
</svg>
