<svg width="24" height="24" viewBox="0 0 24 24" fill="none" xmlns="http://www.w3.org/2000/svg">
<path d="M5 5.5C5 4.67157 5.67157 4 6.5 4H14.5C14.7761 4 15 3.77614 15 3.5C15 3.22386 14.7761 3 14.5 3H6.5C5.11929 3 4 4.11929 4 5.5V16.5018C4 16.7779 4.22386 17.0018 4.5 17.0018C4.77614 17.0018 5 16.7779 5 16.5018V5.5Z" fill="#282C33"/>
<path fill-rule="evenodd" clip-rule="evenodd" d="M7 8.00241C7 6.89784 7.89543 6.00241 9 6.00241H17C18.1046 6.00241 19 6.89784 19 8.00241V19C19 20.1046 18.1046 21 17 21H9C7.89543 21 7 20.1046 7 19V8.00241ZM9 7.00241H17C17.5523 7.00241 18 7.45013 18 8.00241V19C18 19.5523 17.5523 20 17 20H9C8.44772 20 8 19.5523 8 19V8.00241C8 7.45013 8.44771 7.00241 9 7.00241Z" fill="#282C33"/>
</svg>
