<svg width="24" height="24" viewBox="0 0 24 24" fill="none" xmlns="http://www.w3.org/2000/svg">
<path opacity="0.35" fill-rule="evenodd" clip-rule="evenodd" d="M12.4341 4.76756C12.2421 4.43165 11.7578 4.43165 11.5658 4.76756L3.28903 19.252C3.09856 19.5853 3.33924 20.0001 3.72315 20.0001H20.2768C20.6607 20.0001 20.9014 19.5853 20.7109 19.252L12.4341 4.76756Z" fill="#C90C0C"/>
<path d="M12.75 17.0001C12.75 17.4143 12.4142 17.7501 12 17.7501C11.5858 17.7501 11.25 17.4143 11.25 17.0001C11.25 16.5858 11.5858 16.2501 12 16.2501C12.4142 16.2501 12.75 16.5858 12.75 17.0001Z" fill="#C90C0C"/>
<path d="M12 9.00006C11.5909 9.00006 11.2642 9.3407 11.2812 9.74941L11.4792 14.5005C11.4908 14.7797 11.7205 15.0001 12 15.0001C12.2794 15.0001 12.5092 14.7797 12.5208 14.5005L12.7187 9.74941C12.7358 9.3407 12.409 9.00006 12 9.00006Z" fill="#C90C0C"/>
<path fill-rule="evenodd" clip-rule="evenodd" d="M10.6976 4.27142C11.2735 3.26369 12.7265 3.2637 13.3024 4.27142L21.5792 18.7559C22.1506 19.7558 21.4285 21.0001 20.2768 21.0001H3.72316C2.57143 21.0001 1.84938 19.7558 2.4208 18.7559L10.6976 4.27142ZM12.4341 4.76756C12.2422 4.43165 11.7578 4.43165 11.5659 4.76756L3.28904 19.252C3.09857 19.5853 3.33925 20.0001 3.72316 20.0001H20.2768C20.6607 20.0001 20.9014 19.5853 20.7109 19.252L12.4341 4.76756Z" fill="#C90C0C"/>
</svg>
