<svg width="24" height="24" viewBox="0 0 24 24" fill="none" xmlns="http://www.w3.org/2000/svg">
<path fill-rule="evenodd" clip-rule="evenodd" d="M12 18C15.3137 18 18 15.3137 18 12C18 8.68629 15.3137 6 12 6C8.68629 6 6 8.68629 6 12C6 15.3137 8.68629 18 12 18ZM12 19C15.866 19 19 15.866 19 12C19 8.13401 15.866 5 12 5C8.13401 5 5 8.13401 5 12C5 15.866 8.13401 19 12 19Z" fill="#3C41C2"/>
<path d="M8 12C8 11.7239 8.22386 11.5 8.5 11.5H15.5C15.7761 11.5 16 11.7239 16 12C16 12.2761 15.7761 12.5 15.5 12.5H8.5C8.22386 12.5 8 12.2761 8 12Z" fill="#3C41C2"/>
<path d="M12 8C12.2761 8 12.5 8.22386 12.5 8.5L12.5 15.5C12.5 15.7761 12.2761 16 12 16C11.7239 16 11.5 15.7761 11.5 15.5L11.5 8.5C11.5 8.22386 11.7239 8 12 8Z" fill="#3C41C2"/>
</svg>
